:SAMPLES-PER-SECOND 30
:FULLY-SPECIFIED
:DEGREES
342
root  35.12496348 36.50279308 -14.93603564 9.050411224 0.6066746116 3.075876236
lowerback  -8.908221245 0.2738649547 0.8612219691
upperback  -3.658478498 -0.02996220067 -3.019459963
thorax  1.181409955 -0.2044499964 -3.616699934
lowerneck  -15.85519981 -1.516160011 -1.422739983
upperneck  21.01840019 -3.523390055 4.85656023
head  9.358579636 -1.467230082 1.42249012
lclavicle  0 -4.497500157e-015 -2.743230041e-014
lhumerus  -45.35340118 27.94050026 68.31780243
lradius  -0.3292385638 -6.507048965e-006 28.49990082
lwrist  4.824992743e-007 -3.790274832e-007 -29.40979958
lhand  -4.405300586e-031 -36.72040176 -10.72439957
lfingers  90 7.125020027 -90
lthumb  94.74225044 -25.56571091 100.8814038
rclavicle  0 -4.497500157e-015 -2.743230041e-014
rhumerus  -39.21350098 -4.30714941 -76.38310242
rradius  -5.16745672e-007 2.214343908e-008 101.4929962
rwrist  -3.062178075e-005 0.01194404531 -174.7230072
rhand  -1.775242907e-031 5.986219883 -7.881830215
rfingers  -90 -7.125020027 -90
rthumb  -84.88329923 -8.341505645 -58.31643225
rfemur  -12.56921005 14.86712742 13.46514988
rtibia  -1.046096921 0.7551777959 21.52195549
rfoot  -0.8310900331 -19.13556099 -39.6870842
rtoes  4.099939364 19.59211694 -102.066185
lfemur  -10.39973545 -18.29596901 -18.50461388
ltibia  1.048013568 0.5566760898 16.58045578
lfoot  0.4714301825 -27.61924934 35.01084518
ltoes  -8.506763157 -18.16811184 -115.6267749
343
root  35.12120284 36.5016727 -14.93800907 9.043675423 0.5282629132 3.064809561
lowerback  -8.910600662 0.1980960071 0.760609448
upperback  -3.660433054 -0.1203579977 -2.918560028
thorax  1.185960054 -0.2463140041 -3.463289976
lowerneck  -15.86769962 -1.463170052 -1.50999999
upperneck  21.03120041 -3.422060013 4.84360981
head  9.362500191 -1.42727983 1.445780158
lclavicle  0 -4.497500157e-015 -2.743230041e-014
lhumerus  -45.39390182 28.02459908 68.38829803
lradius  -0.3307462931 -6.507048965e-006 28.57069969
lwrist  4.824992743e-007 -3.790274832e-007 -29.44020271
lhand  -4.405300586e-031 -36.72040176 -10.72439957
lfingers  90 7.125020027 -90
lthumb  94.74225044 -25.56571091 100.8814038
rclavicle  0 -4.497500157e-015 -2.743230041e-014
rhumerus  -39.83969879 -4.930569649 -76.41059875
rradius  -5.16745672e-007 2.214343908e-008 100.5759964
rwrist  -3.062178075e-005 0.01194404531 -174.753006
rhand  -1.775242907e-031 5.986219883 -7.881830215
rfingers  -90 -7.125020027 -90
rthumb  -84.88329923 -8.341505645 -58.31643225
rfemur  -12.56537437 14.8843298 13.46258545
rtibia  -1.035226345 0.7308252454 21.49225807
rfoot  -0.8095063567 -19.17510223 -39.64967728
rtoes  4.099939364 19.59211694 -102.066185
lfemur  -10.42979908 -18.22975349 -18.49119759
ltibia  1.021329284 0.5441226363 16.65632439
lfoot  0.4849745929 -27.63998985 34.99676132
ltoes  -8.506763157 -18.16811184 -115.6267749
344
root  35.11886597 36.49837764 -14.94360796 9.019436836 0.4329012334 3.06895709
lowerback  -8.949681282 0.1692569852 0.7592380643
upperback  -3.662770033 -0.1578609943 -2.878230095
thorax  1.212120056 -0.26394099 -3.424580097
lowerneck  -15.92879963 -1.443379998 -1.555230021
upperneck  21.09679985 -3.394940138 4.867099762
head  9.396840096 -1.415120006 1.464750051
lclavicle  0 -4.497500157e-015 -2.743230041e-014
lhumerus  -45.37490082 28.06509972 68.42790222
lradius  -0.3322485387 -6.507048965e-006 28.62170219
lwrist  4.824992743e-007 -3.790274832e-007 -29.37759972
lhand  -4.405300586e-031 -36.72040176 -10.72439957
lfingers  90 7.125020027 -90
lthumb  94.74225044 -25.56571091 100.8814038
rclavicle  0 -4.497500157e-015 -2.743230041e-014
rhumerus  -40.43759918 -5.606520176 -76.50879669
rradius  -5.16745672e-007 2.214343908e-008 99.6411972
rwrist  -3.062178075e-005 0.01194404531 -174.6179962
rhand  -1.775242907e-031 5.986219883 -7.881830215
rfingers  -90 -7.125020027 -90
rthumb  -84.88329923 -8.341505645 -58.31643225
rfemur  -12.56111145 14.91987896 13.45353794
rtibia  -1.039997697 0.7036485076 21.50530434
rfoot  -0.8291303515 -19.24207687 -39.64958572
rtoes  4.099939364 19.59211694 -102.066185
lfemur  -10.44163418 -18.27442551 -18.49354935
ltibia  0.9854115248 0.463209331 16.70565796
lfoot  0.4582999051 -27.49477577 35.02732849
ltoes  -8.506763157 -18.16811184 -115.6267749
345
root  35.11452562 36.49797815 -14.94584421 9.018186569 0.3365380764 3.057804108
lowerback  -8.921798706 0.1650700867 0.8234807253
upperback  -3.666680098 -0.1688849926 -2.886630058
thorax  1.191820025 -0.2702679932 -3.470510006
lowerneck  -15.88589954 -1.425570011 -1.594630003
upperneck  21.0666008 -3.372009993 4.919419765
head  9.379050255 -1.403369904 1.492390037
lclavicle  0 -4.497500157e-015 -2.743230041e-014
lhumerus  -45.30830002 27.99780083 68.4733963
lradius  -0.3337442279 -6.507048965e-006 28.61459923
lwrist  4.824992743e-007 -3.790274832e-007 -29.32640076
lhand  -4.405300586e-031 -36.72040176 -10.72439957
lfingers  90 7.125020027 -90
lthumb  94.74225044 -25.56571091 100.8814038
rclavicle  0 -4.497500157e-015 -2.743230041e-014
rhumerus  -41.05619812 -6.382220745 -76.59020233
rradius  -5.16745672e-007 2.214343908e-008 98.71640015
rwrist  -3.062178075e-005 0.01194404531 -174.75
rhand  -1.775242907e-031 5.986219883 -7.881830215
rfingers  -90 -7.125020027 -90
rthumb  -84.88329923 -8.341505645 -58.31643225
rfemur  -12.56003666 14.89514923 13.45128822
rtibia  -1.027701974 0.63743788 21.46706581
rfoot  -0.8148548007 -19.37826538 -39.5810585
rtoes  4.099939364 19.59211694 -102.066185
lfemur  -10.46481514 -18.27020836 -18.47065544
ltibia  0.9554110765 0.4448733032 16.75361443
lfoot  0.4737872779 -27.48309898 35.09112549
ltoes  -8.506763157 -18.16811184 -115.6267749
